<?xml version="1.0" encoding="utf-8"?>
<!-- Generator: Adobe Illustrator 16.0.0, SVG Export Plug-In . SVG Version: 6.00 Build 0)  -->
<!DOCTYPE svg PUBLIC "-//W3C//DTD SVG 1.1//EN" "http://www.w3.org/Graphics/SVG/1.1/DTD/svg11.dtd">
<svg version="1.1" id="Layer_1" xmlns="http://www.w3.org/2000/svg" xmlns:xlink="http://www.w3.org/1999/xlink" x="0px" y="0px"
	 width="65.667px" height="65.667px" viewBox="41.417 74.25 65.667 65.667" enable-background="new 41.417 74.25 65.667 65.667"
	 xml:space="preserve">
<rect x="41.417" y="74.25" fill="#222222" width="65.667" height="65.667"/>
<g>
	<polygon fill="#F3F3F3" points="58.75,89.084 70.75,89.084 70.75,95.584 68.25,95.584 68.25,118.584 83.25,118.584 83.25,114.584 
		89.75,114.584 89.75,125.084 58.75,125.084 58.75,118.584 61.25,118.584 61.25,95.584 58.75,95.584 	"/>
	<polygon fill="#FFFFFF" points="73.25,89.084 89.75,89.084 89.75,99.584 83.25,99.584 83.25,95.584 73.25,95.584 	"/>
	<polygon fill="#FFFFFF" points="70.75,103.584 80.75,103.584 80.75,110.084 70.75,110.084 	"/>
</g>
<circle display="none" fill="none" stroke="#F3F3F3" stroke-width="13" cx="75" cy="75" r="68.5"/>
<polygon display="none" fill="#F3F3F3" points="43,38 67,38 67,51 62,51 62,97 92,97 92,89 105,89 105,110 43,110 43,97 48,97 
	48,51 43,51 "/>
<polygon display="none" fill="#F3F3F3" fill-opacity="0.7" points="72,38 105,38 105,59 92,59 92,51 72,51 "/>
<polygon display="none" fill="#F3F3F3" fill-opacity="0.7" points="67,67 87,67 87,80 67,80 "/>
</svg>
